<svg version="1.0" xmlns="http://www.w3.org/2000/svg" width="1620" height="1706.667" viewBox="0 0 1215 1280"><path d="M384 .7c-1.4.3-2.9.8-3.3 1.3-2.1 1.9 30.7 66.6 95.6 188.5 13.7 25.8 41.1 77.6 60.7 115 19.6 37.4 41.5 78.8 48.5 92C617.7 458 640.2 498 642 498c1 0 4.3-3.9 8.8-10.4 1.8-2.6 3.6-4.4 4.1-4.1.5.3 3.1 4.2 5.6 8.8 11.3 19.7 15.8 26.7 17.1 26.7 2 0 26.7-37.7 69.3-106 20.5-32.7 37.9-59.6 38.7-59.8 6-1.4 37.2 20.6 61.6 43.5 64 59.7 103.6 136.3 116 223.9 1.9 13.7 2.2 20.2 2.3 47.9 0 32.5-.4 38.1-4.6 64-13.4 81.4-57 160.6-118.6 215.6-21.3 19-37.4 31-59.3 44.1-67.4 40.4-147.3 59.1-223.7 52.3-17.5-1.5-16.9-1.4-34.9-4.5-31.9-5.4-66-16.3-96.7-30.8-13.6-6.5-19.2-10.1-34.4-21.8-62-48.4-108.5-116.8-130.2-192-14.2-48.9-18.4-101.3-12.1-150.4 7.9-61.1 31-120.1 66.4-169.5 4.3-6.1 8-11.5 8.3-12.1.7-1.9-20.7-26.6-38.6-44.4-25.2-25.1-47.7-42.6-74.1-57.4-5.8-3.3-13.6-8-17.5-10.6-19.8-13.1-48.5-26.9-68.8-33.1l-5.7-1.7-5.6 7.5C54.5 406 15.4 505.9 4.5 606.6c-4.1 38-5.3 67.5-3.5 86.5.5 5.7 1.4 16.7 2 24.4 14.5 179.4 109.9 341.1 261 442.2 11.5 7.7 46.3 28.9 69 42 72.4 42 157.7 68.3 243.5 75.3 7.7.6 18.7 1.5 24.4 2 20.1 1.9 46.1.8 88.1-3.5 125.5-13.1 246.5-68.8 339.5-156.5 105.8-99.7 170.5-232.5 183-375.5.8-9.9 2-23 2.5-29.1 1.3-14.1 1.3-32.5 0-47.2-3.3-39-4.3-48.1-6.1-60.7-13.7-95.1-51.5-186-109.4-263-18.6-24.7-31.7-39.8-55.5-63.6-38.7-38.7-70.8-63.7-120.9-93.9-17.3-10.4-22.6-14.1-22.5-15.6 0-1 11-19.2 24.4-40.4 45.3-71.7 53-84.4 51.4-86-.5-.5-9.8-1.6-20.6-2.4-10.9-.8-20.2-1.7-20.8-2.1-.7-.4.4-3.3 3-7.9 2.2-4.1 4-7.8 4-8.3 0-3-80.5-7-262-13.3-15.7-.5-57.3-2.1-92.5-3.4-35.2-1.4-79.7-3-99-3.6-19.2-.6-42.8-1.5-52.3-2C418 0 388.8-.1 384 .7z" fill="#fff"/></svg>